<?xml version="1.0" encoding="iso-8859-1"?>
<!-- Generator: Adobe Illustrator 22.1.0, SVG Export Plug-In . SVG Version: 6.00 Build 0)  -->
<svg 
	version="1.1" 
	id="Layer_1" 
	viewBox="0 0 30 30" 
	style="enable-background:new 0 0 30 30;" 
	xml:space="preserve" 
	width="30px" 
	height="30px"
>
	<g>
		<circle cx="14" cy="14" r="4"/>
		<path d="M24,4H6C4.895,4,4,4.895,4,6v18c0,1.105,0.895,2,2,2h18c1.105,0,2-0.895,2-2V6C26,4.895,25.105,4,24,4z M21.707,21.707   C21.512,21.902,21.256,22,21,22s-0.512-0.098-0.707-0.293l-2.822-2.822C16.49,19.584,15.294,20,14,20c-3.309,0-6-2.691-6-6   s2.691-6,6-6s6,2.691,6,6c0,1.294-0.416,2.49-1.115,3.471l2.822,2.822C22.098,20.684,22.098,21.316,21.707,21.707z"/>
	</g>
</svg>
